<svg width="287" height="150" viewBox="0 0 287 150" fill="none" xmlns="http://www.w3.org/2000/svg">
<g clip-path="url(#clip0_29982_42961)">
<rect width="287" height="150" fill="#DFFDF7"/>
<path fill-rule="evenodd" clip-rule="evenodd" d="M183.5 61.1129C182.673 61.1129 182 60.44 182 59.6129C182 58.7857 182.673 58.1129 183.5 58.1129C184.327 58.1129 185 58.7857 185 59.6129C185 60.44 184.327 61.1129 183.5 61.1129Z" fill="#ECECFE"/>
<path fill-rule="evenodd" clip-rule="evenodd" d="M158 112.113C157.173 112.113 156.5 111.44 156.5 110.613C156.5 109.786 157.173 109.113 158 109.113C158.827 109.113 159.5 109.786 159.5 110.613C159.5 111.44 158.827 112.113 158 112.113Z" fill="#ECECFE"/>
<path fill-rule="evenodd" clip-rule="evenodd" d="M123.5 116.613C122.673 116.613 122 115.94 122 115.113C122 114.286 122.673 113.613 123.5 113.613C124.327 113.613 125 114.286 125 115.113C125 115.94 124.327 116.613 123.5 116.613Z" fill="#ECECFE"/>
<path fill-rule="evenodd" clip-rule="evenodd" d="M110 85.1129C109.173 85.1129 108.5 84.44 108.5 83.6129C108.5 82.7857 109.173 82.1129 110 82.1129C110.827 82.1129 111.5 82.7857 111.5 83.6129C111.5 84.44 110.827 85.1129 110 85.1129Z" fill="#ECECFE"/>
<path fill-rule="evenodd" clip-rule="evenodd" d="M105.5 40.1129C104.673 40.1129 104 39.44 104 38.6129C104 37.7857 104.673 37.1129 105.5 37.1129C106.327 37.1129 107 37.7857 107 38.6129C107 39.44 106.327 40.1129 105.5 40.1129Z" fill="#ECECFE"/>
<path fill-rule="evenodd" clip-rule="evenodd" d="M93.5 78.5316C92.6716 78.5316 92 79.2032 92 80.0316C92 80.8601 92.6716 81.5316 93.5 81.5316C94.3284 81.5316 95 80.8601 95 80.0316C95 79.2032 94.3284 78.5316 93.5 78.5316ZM89 80.0316C89 77.5464 91.0147 75.5316 93.5 75.5316C95.9853 75.5316 98 77.5464 98 80.0316C98 82.5169 95.9853 84.5316 93.5 84.5316C91.0147 84.5316 89 82.5169 89 80.0316Z" fill="#FA7A35"/>
<path fill-rule="evenodd" clip-rule="evenodd" d="M93.5 81.6817C94.3284 81.6817 95 82.3532 95 83.1817V87.0817C95 87.9101 94.3284 88.5817 93.5 88.5817C92.6716 88.5817 92 87.9101 92 87.0817V83.1817C92 82.3532 92.6716 81.6817 93.5 81.6817Z" fill="#FA7A35"/>
<path fill-rule="evenodd" clip-rule="evenodd" d="M117.95 57.5316C117.122 57.5316 116.45 58.2032 116.45 59.0316C116.45 59.8601 117.122 60.5316 117.95 60.5316C118.778 60.5316 119.45 59.8601 119.45 59.0316C119.45 58.2032 118.779 57.5316 117.95 57.5316ZM113.45 59.0316C113.45 56.5464 115.465 54.5316 117.95 54.5316C120.435 54.5316 122.45 56.5464 122.45 59.0316C122.45 61.5169 120.435 63.5316 117.95 63.5316C115.465 63.5316 113.45 61.5169 113.45 59.0316Z" fill="#FA7A35"/>
<path fill-rule="evenodd" clip-rule="evenodd" d="M117.95 60.6817C118.779 60.6817 119.45 61.3532 119.45 62.1817V66.0817C119.45 66.9101 118.779 67.5817 117.95 67.5817C117.122 67.5817 116.45 66.9101 116.45 66.0817V62.1817C116.45 61.3532 117.122 60.6817 117.95 60.6817Z" fill="#FA7A35"/>
<path fill-rule="evenodd" clip-rule="evenodd" d="M144.5 50.6316C143.672 50.6316 143 51.3032 143 52.1316C143 52.9601 143.672 53.6316 144.5 53.6316C145.328 53.6316 146 52.9601 146 52.1316C146 51.3032 145.328 50.6316 144.5 50.6316ZM140 52.1316C140 49.6464 142.015 47.6316 144.5 47.6316C146.985 47.6316 149 49.6464 149 52.1316C149 54.6169 146.985 56.6316 144.5 56.6316C142.015 56.6316 140 54.6169 140 52.1316Z" fill="#FA7A35"/>
<path fill-rule="evenodd" clip-rule="evenodd" d="M144.5 53.9317C145.328 53.9317 146 54.6032 146 55.4317V59.3317C146 60.1601 145.328 60.8317 144.5 60.8317C143.672 60.8317 143 60.1601 143 59.3317V55.4317C143 54.6032 143.672 53.9317 144.5 53.9317Z" fill="#FA7A35"/>
<path fill-rule="evenodd" clip-rule="evenodd" d="M137.6 77.4817C136.772 77.4817 136.1 78.1532 136.1 78.9817C136.1 79.8101 136.772 80.4817 137.6 80.4817C138.428 80.4817 139.1 79.8101 139.1 78.9817C139.1 78.1532 138.428 77.4817 137.6 77.4817ZM133.1 78.9817C133.1 76.4964 135.115 74.4817 137.6 74.4817C140.085 74.4817 142.1 76.4964 142.1 78.9817C142.1 81.467 140.085 83.4817 137.6 83.4817C135.115 83.4817 133.1 81.467 133.1 78.9817Z" fill="#FA7A35"/>
<path fill-rule="evenodd" clip-rule="evenodd" d="M137.6 80.6316C138.428 80.6316 139.1 81.3032 139.1 82.1316V86.0316C139.1 86.8601 138.428 87.5316 137.6 87.5316C136.772 87.5316 136.1 86.8601 136.1 86.0316V82.1316C136.1 81.3032 136.772 80.6316 137.6 80.6316Z" fill="#FA7A35"/>
<path fill-rule="evenodd" clip-rule="evenodd" d="M158.6 86.6316C157.772 86.6316 157.1 87.3032 157.1 88.1316C157.1 88.9601 157.772 89.6316 158.6 89.6316C159.428 89.6316 160.1 88.9601 160.1 88.1316C160.1 87.3032 159.428 86.6316 158.6 86.6316ZM154.1 88.1316C154.1 85.6464 156.115 83.6316 158.6 83.6316C161.085 83.6316 163.1 85.6464 163.1 88.1316C163.1 90.6169 161.085 92.6316 158.6 92.6316C156.115 92.6316 154.1 90.6169 154.1 88.1316Z" fill="#FA7A35"/>
<path fill-rule="evenodd" clip-rule="evenodd" d="M158.6 89.9317C159.428 89.9317 160.1 90.6032 160.1 91.4317V95.3317C160.1 96.1601 159.428 96.8317 158.6 96.8317C157.772 96.8317 157.1 96.1601 157.1 95.3317V91.4317C157.1 90.6032 157.772 89.9317 158.6 89.9317Z" fill="#FA7A35"/>
<path fill-rule="evenodd" clip-rule="evenodd" d="M157.85 63.0817C157.022 63.0817 156.35 63.7532 156.35 64.5817C156.35 65.4101 157.022 66.0817 157.85 66.0817C158.678 66.0817 159.35 65.4101 159.35 64.5817C159.35 63.7532 158.678 63.0817 157.85 63.0817ZM153.35 64.5817C153.35 62.0964 155.365 60.0817 157.85 60.0817C160.335 60.0817 162.35 62.0964 162.35 64.5817C162.35 67.0669 160.335 69.0817 157.85 69.0817C155.365 69.0817 153.35 67.0669 153.35 64.5817Z" fill="#FA7A35"/>
<path fill-rule="evenodd" clip-rule="evenodd" d="M157.85 66.3816C158.678 66.3816 159.35 67.0532 159.35 67.8816V71.7816C159.35 72.6101 158.678 73.2816 157.85 73.2816C157.022 73.2816 156.35 72.6101 156.35 71.7816V67.8816C156.35 67.0532 157.022 66.3816 157.85 66.3816Z" fill="#FA7A35"/>
<path fill-rule="evenodd" clip-rule="evenodd" d="M167 36.8317C166.172 36.8317 165.5 37.5032 165.5 38.3317C165.5 39.1601 166.172 39.8317 167 39.8317C167.828 39.8317 168.5 39.1601 168.5 38.3317C168.5 37.5032 167.828 36.8317 167 36.8317ZM162.5 38.3317C162.5 35.8464 164.515 33.8317 167 33.8317C169.485 33.8317 171.5 35.8464 171.5 38.3317C171.5 40.8169 169.485 42.8317 167 42.8317C164.515 42.8317 162.5 40.8169 162.5 38.3317Z" fill="#FA7A35"/>
<path fill-rule="evenodd" clip-rule="evenodd" d="M167 39.9817C167.828 39.9817 168.5 40.6532 168.5 41.4817V45.3817C168.5 46.2101 167.828 46.8817 167 46.8817C166.172 46.8817 165.5 46.2101 165.5 45.3817V41.4817C165.5 40.6532 166.172 39.9817 167 39.9817Z" fill="#FA7A35"/>
<path d="M152 77.9317H155Z" fill="#4F9D91"/>
<path d="M134 61.4317H137Z" fill="#4F9D91"/>
<path d="M158 53.9317H161Z" fill="#4F9D91"/>
<path d="M89.3588 57.5317C88.7588 57.5317 88.1588 57.0817 87.8588 56.4817L86.9588 52.4317C86.8088 51.6817 87.2588 50.7817 88.0088 50.6317C88.7588 50.4817 89.6588 50.9317 89.8088 51.6817L90.8588 55.5817C91.0088 56.3317 90.5588 57.2317 89.8088 57.3817C89.6588 57.5317 89.5088 57.5317 89.3588 57.5317ZM93.4088 53.9317C92.8088 53.9317 92.0588 53.7817 91.4588 53.1817C90.7088 52.4317 90.8588 51.3817 91.0088 50.6317C91.0088 50.3317 91.1588 49.8817 91.0088 49.7317C90.5588 48.9817 90.7088 48.0817 91.4588 47.6317C92.2088 47.1817 93.1088 47.3317 93.5588 48.0817C94.1588 49.1317 94.1588 50.1817 94.0088 50.9317C94.1588 50.9317 94.1588 50.9317 94.3088 50.9317C94.7588 50.7817 95.3588 50.7817 95.9588 50.7817C96.8588 50.7817 97.4588 51.3817 97.4588 52.2817C97.4588 53.1817 96.8588 53.7817 95.9588 53.7817C95.6588 53.7817 95.2088 53.7817 94.9088 53.9317C94.3088 53.9317 93.8588 53.9317 93.4088 53.9317Z" fill="#4F9D91"/>
<path d="M163.159 44.3317C162.409 41.7817 161.359 41.0317 160.459 40.7317C160.459 40.5817 160.309 40.4317 160.309 40.2817C160.159 39.6817 159.859 38.7817 159.109 38.1817C158.359 37.5817 157.609 37.7317 157.009 37.7317H156.859C156.259 37.4317 155.659 37.4317 155.059 37.5817L154.909 37.4317C153.859 36.3817 152.959 35.9317 152.209 35.6317C152.059 35.1817 151.759 34.7317 151.459 34.2817C150.409 33.0817 149.359 33.0817 148.759 33.0817C148.609 32.9317 148.609 32.7817 148.459 32.6317C147.859 31.7317 147.409 31.1317 145.909 31.1317C144.259 30.9817 140.209 31.7317 138.709 33.3817C137.359 34.7317 136.759 36.2317 136.759 37.8817C136.759 38.1817 136.759 38.6317 136.909 38.9317C136.909 39.0817 136.909 39.3817 137.059 39.3817C136.459 39.6817 136.009 39.8317 135.409 39.9817C134.659 40.1317 133.909 40.4317 132.859 41.1817C132.709 41.1817 132.559 41.3317 132.409 41.3317C131.659 41.4817 130.459 41.9317 130.159 43.1317V43.2817C130.009 43.2817 129.859 43.1317 129.709 42.9817C129.559 42.8317 129.259 42.5317 129.109 42.3817C128.659 41.7817 128.059 41.1817 127.459 40.7317C126.559 40.1317 125.809 40.2817 125.209 40.5817C123.409 40.1317 122.209 40.5817 121.609 41.0317C120.859 41.4817 119.959 42.3817 119.659 44.3317C119.509 45.3817 119.959 46.2817 120.709 47.3317C120.409 47.0317 119.809 46.5817 118.909 46.5817C117.559 46.5817 114.859 46.5817 112.309 47.0317C112.159 47.0317 112.159 47.0317 112.009 47.1817L111.259 47.4817C108.859 48.3817 104.959 49.7317 105.709 53.3317C105.859 54.0817 105.859 54.8317 105.859 54.8317C105.859 55.2817 106.009 55.7317 106.459 56.0317L107.209 56.4817C107.209 57.2317 107.209 58.2817 108.109 59.0317C108.409 59.3317 109.009 60.0817 109.609 60.6817C110.209 61.4317 110.659 61.8817 110.809 62.0317C111.109 62.3317 111.409 62.4817 111.859 62.4817C112.309 62.4817 112.609 62.3317 112.909 62.0317C113.509 61.4317 113.359 60.5317 112.759 59.9317C112.609 59.7817 112.159 59.3317 111.709 58.7317C111.109 58.1317 110.509 57.3817 110.209 57.0817C110.209 56.9317 110.209 56.6317 110.209 56.4817C110.209 56.3317 110.209 56.0317 110.209 55.8817C110.209 55.4317 109.909 54.9817 109.609 54.6817L108.859 54.0817C108.859 53.6317 108.709 53.1817 108.709 52.5817C108.559 51.6817 110.359 50.9317 112.309 50.1817L112.909 49.8817C115.009 49.5817 117.259 49.5817 118.459 49.5817C119.059 51.3817 120.409 51.2317 121.159 51.0817C121.159 51.0817 121.459 51.0817 121.609 51.2317C122.059 51.3817 123.709 51.8317 124.459 50.4817C125.209 49.1317 124.309 47.6317 123.409 46.2817C123.109 45.8317 122.659 45.0817 122.509 44.7817C122.659 44.1817 122.809 43.7317 123.109 43.5817C123.409 43.4317 124.009 43.4317 124.309 43.5817C125.059 43.7317 125.659 43.7317 125.959 43.5817C126.259 43.7317 126.409 44.0317 126.709 44.3317C127.009 44.6317 127.309 45.0817 127.759 45.3817C128.509 45.9817 130.009 46.7317 131.359 46.4317C132.109 46.2817 132.559 45.8317 132.859 45.2317C133.009 44.7817 133.009 44.4817 133.009 44.1817H133.159C133.609 44.0317 134.059 43.8817 134.509 43.5817C135.109 43.1317 135.559 42.9817 136.159 42.8317C136.759 42.6817 137.659 42.3817 138.559 41.7817C140.209 40.7317 139.909 39.2317 139.759 38.3317C139.759 38.1817 139.759 37.8817 139.759 37.7317C139.759 37.1317 139.909 36.2317 140.809 35.1817C141.409 34.5817 144.109 33.8317 145.609 33.8317C145.609 33.8317 145.609 33.9817 145.759 33.9817C145.909 34.1317 146.059 34.4317 146.209 34.7317C147.109 35.9317 148.159 35.7817 148.609 35.7817C148.759 35.7817 148.759 35.7817 148.909 35.7817C149.059 35.9317 149.359 36.5317 149.509 36.9817C149.659 37.4317 150.109 37.8817 150.709 38.0317C150.709 38.0317 151.609 38.1817 152.659 39.2317C153.409 39.9817 154.459 40.7317 155.659 40.2817C156.259 40.4317 156.709 40.4317 157.159 40.4317C157.159 40.5817 157.159 40.7317 157.309 40.8817C157.459 41.1817 157.459 41.6317 157.609 41.9317C158.059 42.8317 158.659 43.1317 159.109 43.2817C159.409 43.4317 159.709 43.5817 160.159 45.0817C160.459 45.8317 161.209 46.2817 161.959 46.1317C163.009 45.8317 163.459 45.0817 163.159 44.3317Z" fill="#4F9D91"/>
<path d="M92.3588 72.3817C91.6088 72.3817 91.0088 71.7817 90.8588 71.0317C90.7088 70.2817 91.3088 69.5317 92.2088 69.3817L93.2588 69.2317C92.6588 68.9317 91.9088 68.4817 91.0088 68.0317C89.8088 67.4317 89.3588 66.5317 89.0588 65.9317C88.9088 65.6317 88.7588 65.3317 88.4588 65.0317C87.8588 64.4317 88.0088 63.5317 88.6088 62.9317C89.2088 62.3317 90.1088 62.4817 90.7088 63.0817C91.1588 63.5317 91.4588 64.1317 91.6088 64.5817C91.9088 65.1817 92.0588 65.3317 92.2088 65.4817C97.6088 68.1817 98.5088 69.2317 98.2088 70.4317C98.0588 71.0317 97.6088 71.7817 96.5588 71.9317L92.3588 72.5317C92.3588 72.3817 92.3588 72.3817 92.3588 72.3817Z" fill="#4F9D91"/>
<path d="M100.909 87.6817L100.459 86.9317C100.009 86.1817 99.1088 86.0317 98.3588 86.4817C97.6088 86.9317 97.4588 87.8317 97.9088 88.5817L98.0588 88.8817L97.9088 89.9317C97.7588 90.0817 97.7588 90.2317 97.6088 90.3817C97.3088 90.8317 96.8588 91.2817 96.5588 91.5817C96.4088 91.7317 96.2588 91.8817 96.2588 92.1817C96.1088 92.4817 95.9588 93.0817 95.8088 93.5317C95.8088 93.6817 95.6588 93.8317 95.6588 93.8317H95.5088C95.3588 93.8317 95.2088 93.8317 95.0588 93.6817C95.0588 93.6817 95.0588 93.6817 94.9088 93.6817L94.7588 93.5317C94.6088 93.3817 94.4588 93.2317 94.3088 93.0817C94.0088 92.9317 93.7088 92.7817 93.2588 92.7817C93.1088 92.7817 92.8088 92.7817 92.6588 92.9317C92.6588 92.9317 92.5088 92.9317 92.3588 92.7817C92.3588 92.7817 92.2088 92.7817 92.0588 92.6317L92.3588 92.0317C92.6588 91.5817 92.6588 90.9817 92.3588 90.5317L91.3088 88.7317C90.8588 87.9817 89.9588 87.8317 89.2088 88.2817C88.4588 88.7317 88.3088 89.6317 88.7588 90.3817L89.3588 91.4317L88.3088 93.0817C88.0088 93.5317 88.0088 94.1317 88.3088 94.5817C88.6088 95.0317 89.0588 95.3317 89.5088 95.3317L90.7088 95.4817C90.7088 95.4817 90.7088 95.4817 90.8588 95.4817C91.0088 95.6317 91.1588 95.6317 91.3088 95.7817C91.4588 95.9317 91.7588 95.9317 92.2088 96.0817C92.3588 96.0817 92.6588 96.0817 92.9588 96.0817C93.2588 96.3817 93.7088 96.5317 94.0088 96.6817C94.3088 96.8317 94.7588 96.8317 95.0588 96.9817C95.3588 96.9817 95.8088 96.9817 96.2588 96.9817C96.5588 96.9817 97.0088 96.8317 97.4588 96.5317C97.6088 96.5317 97.6088 96.3817 97.6088 96.3817C97.7588 96.2317 97.7588 96.2317 97.9088 96.0817C98.0588 95.9317 98.0588 95.7817 98.2088 95.6317C98.3588 95.3317 98.5088 95.0317 98.6588 94.8817C98.8088 94.4317 98.9588 93.9817 99.1088 93.6817C99.4088 93.3817 99.7088 92.9317 100.009 92.6317C100.159 92.3317 100.459 92.1817 100.609 92.0317C100.609 91.8817 100.759 91.8817 100.909 91.7317C100.909 91.7317 101.059 91.5817 101.059 91.4317C101.059 91.4317 101.209 91.1317 101.209 90.9817L101.359 89.0317C101.209 88.4317 101.059 87.9817 100.909 87.6817Z" fill="#4F9D91"/>
<path d="M100.009 110.932L100.459 110.332ZM100.459 110.332C100.759 109.882 100.759 109.432 100.609 108.982L100.009 107.182L100.159 106.582C100.159 106.282 100.159 106.132 100.159 105.832L100.009 105.232C99.8588 104.632 99.4088 104.332 98.8088 104.182H98.2088L97.1588 103.132L96.8588 102.082C96.7088 101.482 96.1088 101.032 95.5088 101.032L93.5588 100.882L91.1588 101.332C91.0088 101.332 90.7088 101.482 90.5588 101.482L87.5588 103.282C87.1088 103.582 86.8088 104.032 86.8088 104.482V105.382L86.3588 105.832C86.0588 106.282 85.9088 106.732 86.0588 107.182L86.6588 107.932C86.6588 108.232 86.8088 108.382 87.1088 108.532L88.3088 109.732L88.9088 110.632L89.2088 110.932C89.3588 111.082 89.5088 111.232 89.8088 111.382C89.9588 111.532 90.2588 111.682 90.7088 111.832C90.8588 111.832 91.1588 111.982 91.1588 111.982C91.3088 111.982 91.4588 111.982 91.6088 111.982C91.9088 111.982 92.3588 112.132 92.8088 112.132C93.7088 112.282 94.6088 112.432 95.2088 112.432C95.3588 112.432 95.6588 112.432 95.8088 112.432L99.4088 111.382C99.7088 111.232 100.009 111.082 100.159 110.782M95.2088 105.532L95.3588 105.682L96.4088 106.582C96.5588 106.732 96.8588 106.882 97.0088 106.882C97.0088 107.182 97.0088 107.332 97.0088 107.632L97.3088 108.832L94.9088 109.582C94.3088 109.582 93.5588 109.432 92.8088 109.282C92.3588 109.282 92.0588 109.132 91.7588 109.132C91.6088 109.132 91.6088 109.132 91.4588 109.132C91.4588 109.132 91.3088 109.132 91.3088 108.982C91.1588 108.982 91.1588 108.832 91.0088 108.832L90.7088 108.082C90.7088 107.932 90.5588 107.932 90.5588 107.782L89.8088 107.032L89.9588 106.882C90.1088 106.582 90.2588 106.282 90.2588 105.982V105.532L92.2088 104.332L94.1588 104.032H94.6088L94.7588 104.332C94.7588 104.482 94.9088 104.632 95.0588 104.782L95.2088 105.532Z" fill="#4F9D91"/>
<path d="M181.159 112.732C181.159 112.582 181.009 112.582 180.859 112.432C181.159 111.682 181.159 111.082 181.009 110.332C181.009 110.032 181.009 109.732 180.859 109.432C180.859 109.282 181.009 109.282 181.009 109.282C181.309 108.832 181.909 108.082 181.759 106.882C181.609 105.682 180.859 104.932 180.259 104.482C179.959 104.182 179.809 104.032 179.659 103.882C179.659 103.732 179.659 103.282 179.659 102.982C179.659 102.232 179.659 101.182 178.759 100.432C178.459 100.282 177.859 99.9817 176.809 100.282C175.309 100.882 170.659 104.782 171.109 107.332C171.109 107.632 171.259 107.932 171.409 108.082C171.409 108.232 171.259 108.232 171.259 108.382C170.509 109.882 171.709 111.082 172.159 111.532C172.309 111.682 172.459 111.832 172.609 111.832C172.609 111.982 172.609 112.132 172.459 112.282C172.009 113.632 172.309 114.682 173.359 115.282C173.509 115.282 173.659 115.432 173.809 115.432C173.959 115.882 174.259 116.332 174.709 116.632C175.459 117.232 176.809 117.532 178.009 117.532C178.909 117.532 179.659 117.382 180.409 117.082C180.709 116.932 181.909 116.332 182.209 115.132C182.209 114.082 181.609 113.332 181.159 112.732ZM178.909 107.482C178.609 107.782 178.159 108.532 178.159 109.582C178.159 110.032 178.159 110.482 178.309 110.782C178.309 110.932 178.309 111.232 178.309 111.232C177.559 112.732 178.459 113.932 178.909 114.532C178.459 114.682 177.409 114.682 176.809 114.382C176.809 114.082 176.659 113.632 176.509 113.332C176.209 113.032 175.909 112.882 175.609 112.732C175.759 112.282 175.759 111.832 175.609 111.232C175.459 110.332 174.859 109.882 174.409 109.432C174.559 109.282 174.709 108.982 174.859 108.532C175.009 107.632 174.709 107.032 174.259 106.582C174.559 105.832 175.759 104.482 176.809 103.732C176.809 104.182 176.959 104.632 177.109 105.082C177.409 105.832 178.009 106.132 178.309 106.582C178.759 107.032 178.759 107.032 178.909 107.182C178.909 107.332 178.909 107.332 178.909 107.482Z" fill="#4F9D91"/>
<path d="M178.009 84.2317C177.859 83.0317 176.959 81.6817 176.359 81.0817C175.759 80.3317 175.009 80.1817 174.409 80.1817C174.559 79.8817 174.559 79.4317 174.259 78.9817C174.109 78.5317 173.809 78.2317 173.509 78.0817C173.809 77.7817 174.109 77.3317 174.259 76.8817C174.559 75.8317 173.959 74.0317 173.659 73.2817C173.509 72.9817 173.209 72.6817 172.909 72.3817C173.359 71.9317 173.509 71.3317 173.359 70.7317C173.209 69.8317 172.609 69.0817 172.009 68.4817C171.859 68.3317 171.559 67.8817 171.409 67.8817C171.409 67.7317 171.409 67.5817 171.409 67.4317C171.409 66.8317 171.409 65.6317 170.659 64.8817C171.109 64.4317 171.559 63.8317 171.859 63.2317C172.009 63.0817 172.459 62.9317 172.609 62.9317C173.509 62.4817 175.609 61.5817 175.159 59.6317C174.859 57.8317 174.709 57.0817 175.159 55.7317C175.309 55.1317 175.459 54.8317 175.609 54.3817C175.759 53.9317 175.909 53.3317 176.059 52.5817C176.059 52.4317 176.209 52.4317 176.359 52.1317C176.659 51.6817 177.259 50.9317 177.109 49.7317C177.109 49.5817 177.109 49.2817 177.109 49.1317C177.109 48.3817 177.109 47.1817 175.909 46.2817C174.709 45.3817 173.509 45.5317 172.609 45.6817C172.309 45.6817 172.009 45.6817 171.709 45.6817C170.809 45.6817 170.209 46.2817 170.209 47.1817C170.209 48.0817 170.809 48.6817 171.709 48.6817C172.159 48.6817 172.609 48.6817 172.909 48.5317C173.659 48.3817 173.809 48.3817 174.109 48.5317C174.109 48.5317 174.109 48.8317 174.109 48.9817C174.109 49.2817 174.109 49.5817 174.109 49.7317L173.959 49.8817C173.659 50.1817 173.359 50.6317 173.209 51.2317C172.909 51.9817 172.759 52.5817 172.609 53.1817C172.459 53.4817 172.459 53.9317 172.309 54.5317C171.709 56.4817 171.859 57.8317 172.159 59.6317C172.009 59.7817 171.709 59.9317 171.409 59.9317C170.509 60.3817 169.309 60.8317 169.009 62.0317C168.859 62.3317 167.959 62.9317 167.509 63.2317C166.759 63.6817 165.709 64.4317 165.859 65.6317C165.859 66.0817 166.309 66.8317 167.359 67.1317C167.509 67.1317 167.809 67.2817 167.959 67.1317C168.109 67.1317 168.109 67.1317 168.259 67.1317C168.259 67.5817 168.259 68.0317 168.409 68.4817C168.559 69.3817 169.159 69.9817 169.609 70.4317C169.609 70.4317 169.609 70.4317 169.759 70.5817C168.559 71.3317 168.409 72.2317 168.559 72.9817C168.859 74.1817 169.909 74.7817 170.809 74.9317C170.959 75.3817 170.959 75.6817 170.959 75.9817C170.959 75.9817 170.809 75.9817 170.809 76.1317C170.209 76.4317 169.159 77.1817 169.309 78.5317C169.459 79.4317 169.909 79.8817 170.359 80.1817C170.059 80.6317 169.909 81.3817 170.209 82.1317C170.959 83.6317 172.609 83.4817 173.359 83.3317C173.509 83.3317 173.659 83.3317 173.809 83.3317C174.259 83.9317 174.559 84.5317 174.709 84.8317C174.559 85.1317 174.259 85.5817 174.109 86.1817C174.109 86.4817 173.959 86.7817 173.959 87.0817C173.959 87.2317 173.959 87.2317 173.959 87.2317C173.959 87.2317 173.959 87.2317 173.809 87.5317L173.359 87.9817C173.059 88.2817 172.909 88.4317 172.309 88.8817C172.159 89.0317 172.009 89.0317 171.709 89.1817C171.109 89.4817 170.509 89.7817 170.059 90.3817C169.609 90.8317 169.459 91.4317 169.309 91.7317C169.159 92.0317 169.159 92.0317 169.159 92.1817C168.559 92.6317 167.809 93.0817 166.909 93.3817C166.009 93.6817 164.509 93.3817 164.059 93.3817C163.159 93.2317 162.409 93.6817 162.259 94.5817C162.109 95.3317 162.559 96.2317 163.459 96.3817C163.609 96.3817 164.509 96.5317 165.709 96.5317C166.309 96.5317 167.059 96.5317 167.659 96.2317C169.009 95.9317 170.209 95.3317 171.109 94.4317C171.709 93.8317 172.009 93.2317 172.159 92.7817C172.309 92.4817 172.309 92.3317 172.309 92.3317C172.459 92.1817 172.759 92.0317 173.059 91.8817C173.509 91.7317 173.959 91.4317 174.259 91.1317C174.859 90.5317 175.159 90.3817 175.459 89.9317L175.909 89.4817C176.809 88.5817 176.959 87.9817 176.959 87.2317C176.959 87.0817 176.959 86.9317 176.959 86.6317C176.959 86.6317 176.959 86.6317 177.109 86.4817C177.709 85.8817 178.159 85.2817 178.009 84.2317Z" fill="#4F9D91"/>
<path d="M153.409 95.4817C153.259 95.3317 153.259 95.3317 153.259 95.1817C153.259 95.0317 153.109 94.8817 153.709 94.2817C154.309 93.6817 154.309 92.7817 153.709 92.1817C153.109 91.5817 152.209 91.5817 151.609 92.1817C151.159 92.6317 149.809 94.1317 150.559 96.0817C150.709 96.6817 151.009 97.1317 151.309 97.4317V97.5817C151.309 98.0317 151.159 98.1817 151.159 98.1817C151.009 98.1817 150.859 98.1817 150.709 98.3317C150.109 98.4817 149.359 98.4817 148.609 99.0817C148.009 99.3817 147.559 99.3817 146.659 99.0817C145.759 98.9317 144.709 98.7817 143.809 98.9317C143.209 99.0817 142.909 99.0817 142.009 98.4817C141.559 98.1817 141.409 97.8817 141.109 97.5817C140.959 97.2817 140.659 96.9817 140.209 96.6817C139.609 96.2317 138.859 96.0817 138.109 96.2317C137.509 96.3817 137.059 96.6817 136.759 97.1317C136.609 97.1317 136.459 97.1317 136.159 97.1317C135.559 97.1317 135.259 96.9817 135.109 96.9817C134.809 96.9817 134.509 96.8317 133.909 96.8317C133.759 96.8317 133.459 96.8317 133.159 96.8317C132.709 96.8317 131.809 96.6817 131.659 96.6817C130.759 95.7817 129.709 95.7817 129.109 95.7817C128.659 95.7817 128.659 95.7817 128.509 95.7817C128.359 95.7817 128.359 95.6317 128.209 95.4817C127.909 95.0317 127.459 94.4317 126.559 94.1317C126.259 93.9817 125.959 93.9817 125.509 93.8317C125.209 93.8317 124.759 93.6817 124.459 93.5317C124.459 93.3817 124.309 93.2317 124.159 93.0817C123.859 92.6317 123.709 92.0317 123.109 91.5817C122.509 91.1317 122.059 90.9817 121.609 90.9817C121.609 90.8317 121.609 90.6817 121.609 90.5317V90.0817C121.609 89.9317 121.909 89.7817 122.059 89.6317C122.359 89.3317 122.959 88.7317 123.259 87.9817C123.409 87.5317 123.559 87.2317 123.709 87.0817C124.009 86.3317 124.159 85.8817 124.309 84.6817C124.309 84.3817 124.459 84.0817 124.609 83.6317C124.759 83.0317 124.909 82.2817 124.909 81.6817C124.909 80.9317 124.759 80.4817 124.609 80.3317V80.1817C124.609 79.5817 124.759 79.2817 124.909 78.8317L125.059 78.2317C125.209 77.7817 125.209 77.1817 125.359 76.5817C125.359 76.2817 125.359 75.9817 125.359 75.8317C125.509 75.0817 125.359 74.3317 125.209 73.7317C125.209 73.4317 125.059 73.1317 125.059 72.9817C125.059 72.8317 125.059 72.6817 125.209 72.5317C125.359 71.9317 125.959 69.9817 124.159 69.2317C124.009 69.0817 123.259 68.6317 122.809 68.1817C122.209 67.5817 121.309 67.5817 120.709 68.1817C120.109 68.7817 120.109 69.6817 120.709 70.2817C121.009 70.5817 121.609 71.1817 122.359 71.6317C122.359 71.6317 122.359 71.6317 122.359 71.7817C122.359 71.9317 122.209 72.3817 122.209 72.8317C122.209 73.4317 122.359 73.8817 122.359 74.1817C122.509 74.6317 122.509 74.7817 122.509 75.0817C122.509 75.3817 122.359 75.8317 122.359 76.2817C122.359 76.5817 122.359 77.0317 122.209 77.1817L122.059 77.7817C121.909 78.3817 121.759 78.9817 121.609 79.7317C121.459 80.6317 121.759 81.0817 121.909 81.3817C121.909 81.5317 121.909 81.5317 121.909 81.6817C121.909 81.9817 121.759 82.4317 121.609 82.8817C121.459 83.3317 121.309 83.9317 121.309 84.3817C121.159 85.2817 121.159 85.4317 121.009 85.8817C120.859 86.1817 120.709 86.4817 120.559 86.9317C120.409 87.0817 120.259 87.3817 119.959 87.6817C119.359 88.2817 118.609 89.0317 118.609 90.3817V90.6817C118.609 91.4317 118.609 92.4817 119.659 93.5317C120.259 94.1317 120.859 94.1317 121.309 94.1317C121.309 94.2817 121.459 94.4317 121.459 94.4317C121.759 95.0317 122.209 95.7817 122.959 96.2317C123.559 96.5317 124.159 96.6817 124.759 96.8317C125.059 96.8317 125.359 96.9817 125.509 96.9817C125.509 96.9817 125.659 97.1317 125.659 97.2817C125.959 97.5817 126.259 98.0317 126.859 98.3317C127.759 98.9317 128.659 98.7817 129.109 98.7817C129.259 98.7817 129.409 98.7817 129.559 98.7817C130.459 99.6817 131.809 99.6817 132.859 99.8317C133.009 99.8317 133.309 99.8317 133.459 99.8317C134.059 99.8317 134.209 99.9817 134.509 99.9817C134.809 99.9817 135.109 100.132 135.859 100.132C136.459 100.132 137.809 100.282 138.709 99.5317C139.009 99.9817 139.459 100.432 140.209 101.032C141.859 102.082 142.909 102.082 144.109 101.932C144.559 101.932 145.009 101.782 145.759 102.082C146.209 102.232 146.809 102.382 147.559 102.382C148.309 102.382 149.059 102.232 149.959 101.782C150.259 101.632 150.559 101.482 151.009 101.482C152.359 101.332 153.709 100.882 154.009 98.1817C154.309 96.6817 154.009 96.0817 153.409 95.4817Z" fill="#4F9D91"/>
</g>
<defs>
<clipPath id="clip0_29982_42961">
<rect width="287" height="150" fill="white"/>
</clipPath>
</defs>
</svg>
