<svg width="24" height="24" viewBox="0 0 24 24" fill="none" xmlns="http://www.w3.org/2000/svg">
<circle cx="12" cy="12" r="11" fill="white" stroke="#417DC4" stroke-width="2"/>
<path d="M10.2233 9.66812L11.6699 9.66845C13.3268 9.66845 14.6699 11.0116 14.6699 12.6685L10.0026 12.6679L10.0033 13.3351L15.3366 13.3346V12.6685C15.3366 11.9468 15.1245 11.2664 14.7459 10.6679L16.6699 10.6685C17.9981 10.6685 19.1449 11.4453 19.6807 12.5694C18.1041 14.6498 15.5512 16.0018 12.6699 16.0018C10.8291 16.0018 9.26958 15.608 8.00298 14.9186L8.00395 8.71578C8.83431 8.83472 9.59415 9.17218 10.2233 9.66812ZM6.66992 8.00177C7.01182 8.00177 7.2936 8.25913 7.33211 8.59069L7.33659 8.66785V14.6685C7.33659 15.0367 7.03812 15.3351 6.66992 15.3351H5.33659C4.9684 15.3351 4.66992 15.0367 4.66992 14.6685V8.66845C4.66992 8.30024 4.9684 8.00177 5.33659 8.00177H6.66992Z" fill="#417DC4"/>
</svg>
