<svg width="24" height="24" viewBox="0 0 24 24" fill="none" xmlns="http://www.w3.org/2000/svg">
<circle cx="12" cy="12" r="11" fill="white" stroke="#A558A0" stroke-width="2"/>
<path d="M17.0407 12.0656L18.0617 13.8334C18.7061 14.9494 18.3237 16.3764 17.2077 17.0208C16.8529 17.2256 16.4506 17.3334 16.041 17.3334L14.6662 17.333V18.6667L11.3329 16.3334L14.6662 14V15.333L16.041 15.3334C16.0995 15.3334 16.157 15.318 16.2077 15.2887C16.3494 15.2069 16.4083 15.0367 16.355 14.888L16.3297 14.8334L15.3087 13.0656L17.0407 12.0656ZM9.15745 10.256L9.51151 14.3094L8.35714 13.643L7.66941 14.8334C7.64015 14.884 7.62475 14.9415 7.62475 15C7.62475 15.1637 7.74267 15.2998 7.89817 15.328L7.95809 15.3334L9.99946 15.3331V17.333L7.95809 17.3334C6.66942 17.3334 5.62475 16.2887 5.62475 15C5.62475 14.5904 5.73257 14.1881 5.93736 13.8334L6.62509 12.643L5.47005 11.9761L9.15745 10.256ZM13.1662 5.97932C13.5209 6.18411 13.8155 6.47867 14.0203 6.83338L14.7073 8.02417L15.8623 7.35731L15.5083 11.4107L11.8209 9.69064L12.9753 9.02417L12.2882 7.83338C12.2589 7.78271 12.2169 7.74063 12.1662 7.71137C12.0245 7.62955 11.8477 7.66362 11.7455 7.78417L11.7109 7.83338L10.6904 9.60137L8.9584 8.60142L9.97881 6.83338C10.6231 5.71736 12.0502 5.33499 13.1662 5.97932Z" fill="#A558A0"/>
</svg>
