<svg viewBox="0 0 24 24" xmlns="http://www.w3.org/2000/svg" aria-hidden="true"><path d="M12 3C7.03044 3 3 7.03044 3 12C3 16.9696 7.03044 21 12 21C16.9696 21 21 16.9696 21 12C21 7.03044 16.9696 3 12 3Z" fill="#00525E"/><path d="M16.1589 14.9455C16.1091 14.853 15.9952 14.8175 15.9063 14.8673L15.4011 15.1341L14.0351 12.5443C15.1699 12.1602 16.0272 11.0681 15.9703 9.70916C15.9561 9.36766 15.8778 9.02972 15.7355 8.71667C15.3336 7.82379 14.5545 7.21905 13.6225 7.05541L10.6699 6.53604C10.5668 6.51825 10.4707 6.58584 10.4529 6.68901L9.19008 13.8534L6.6964 13.2736C6.5968 13.2487 6.49364 13.3127 6.46873 13.4159L6.04541 15.2443C6.02051 15.3439 6.08454 15.4471 6.18771 15.472L7.27624 15.7246C7.37585 15.7495 7.47901 15.6854 7.50391 15.5823L7.63198 15.0238L10.2004 15.6179C10.3071 15.6428 10.4102 15.5752 10.428 15.4685L10.9758 12.3629L12.3845 12.6084L14.6897 16.9839C14.7395 17.0764 14.8533 17.1119 14.9423 17.0621L16.6035 16.1906C16.696 16.1408 16.7316 16.027 16.6818 15.938L16.1589 14.9455ZM12.8968 11.1783L11.232 10.8866L11.7015 8.22576L13.3699 8.52102C13.7257 8.58505 14.0351 8.78071 14.2415 9.07596C14.4478 9.37122 14.526 9.73051 14.4656 10.0827C14.3304 10.819 13.6296 11.31 12.8968 11.1783Z" fill="white"/></svg>
