<svg viewBox="0 0 24 24" fill="none" xmlns="http://www.w3.org/2000/svg" aria-hidden="true"><path d="M14.1983 0.809622C12.9315 -0.269878 11.0684 -0.269866 9.80181 0.80961L8.27893 2.10737C8.09799 2.26156 7.87302 2.35474 7.63604 2.37365L5.64158 2.53281C3.98258 2.6652 2.6652 3.98258 2.53281 5.64158L2.37366 7.63604C2.35476 7.87301 2.26155 8.09804 2.10735 8.27897L0.809599 9.80182C-0.269876 11.0686 -0.269864 12.9316 0.809621 14.1982L2.10738 15.7211C2.26155 15.9021 2.35474 16.127 2.37365 16.364L2.53283 18.3584C2.66522 20.0174 3.98261 21.3347 5.64162 21.4671L7.63605 21.6264C7.87302 21.6453 8.09794 21.7385 8.27887 21.8927L9.8017 23.1904C11.0684 24.2698 12.9315 24.2699 14.1983 23.1904L15.7211 21.8927C15.902 21.7385 16.1269 21.6453 16.3639 21.6263L18.3584 21.4671C20.0174 21.3348 21.3347 20.0175 21.4672 18.3584L21.6263 16.364C21.6451 16.127 21.7385 15.902 21.8925 15.721L23.1903 14.1983C24.2699 12.9315 24.2699 11.0684 23.1903 9.80182L21.8925 8.27892C21.7383 8.09798 21.6453 7.87301 21.6264 7.63606L21.4672 5.64159C21.3348 3.98261 20.0174 2.66518 18.3584 2.5328L16.3639 2.37364C16.1269 2.35473 15.902 2.26156 15.7211 2.10737L14.1983 0.809622ZM15.195 7.20721L16.7926 8.80486L8.80441 16.7931L7.20678 15.1954L15.195 7.20721ZM10.0027 10.003C9.34087 10.6648 8.26795 10.6648 7.60618 10.003C6.94442 9.34135 6.94442 8.26838 7.60618 7.60662C8.26795 6.94485 9.34087 6.94485 10.0027 7.60662C10.6644 8.26838 10.6644 9.34135 10.0027 10.003ZM13.9967 16.3936C13.3349 15.7319 13.3349 14.659 13.9967 13.9972C14.6585 13.3354 15.7314 13.3354 16.3932 13.9972C17.0549 14.659 17.0549 15.7319 16.3932 16.3936C15.7314 17.0554 14.6585 17.0554 13.9967 16.3936Z" fill="#3A3A3A"/><circle cx="12" cy="12" r="7" fill="#3A3A3A"/><path d="M13.9461 2.09362C12.8248 1.13806 11.1756 1.13807 10.0544 2.09361L8.70636 3.24237C8.54619 3.37886 8.34705 3.46134 8.13728 3.47808L6.3718 3.61897C4.90327 3.73616 3.73714 4.90229 3.61995 6.37081L3.47907 8.13629C3.46234 8.34605 3.37983 8.54524 3.24334 8.7054L2.09458 10.0534C1.13904 11.1747 1.13905 12.8238 2.0946 13.945L3.24336 15.2931C3.37983 15.4533 3.46232 15.6524 3.47906 15.8622L3.61997 17.6276C3.73716 19.0961 4.9033 20.2622 6.37184 20.3794L8.13729 20.5204C8.34705 20.5371 8.54615 20.6196 8.70631 20.7561L10.0543 21.9048C11.1756 22.8603 12.8248 22.8604 13.9461 21.9048L15.2941 20.7561C15.4542 20.6196 15.6533 20.5371 15.8631 20.5203L17.6286 20.3794C19.0971 20.2623 20.2632 19.0962 20.3805 17.6276L20.5213 15.8622C20.538 15.6524 20.6206 15.4532 20.757 15.293L21.9058 13.9451C22.8614 12.8238 22.8614 11.1746 21.9058 10.0534L20.757 8.70536C20.6205 8.54519 20.5381 8.34605 20.5214 8.1363L20.3805 6.37082C20.2633 4.90231 19.0971 3.73614 17.6286 3.61896L15.8631 3.47807C15.6533 3.46133 15.4542 3.37886 15.2941 3.24237L13.9461 2.09362ZM14.8284 7.75669L16.2426 9.17091L9.17151 16.242L7.7573 14.8277L14.8284 7.75669ZM10.2322 10.2315C9.64638 10.8173 8.69664 10.8173 8.11085 10.2315C7.52506 9.64581 7.52506 8.69603 8.11085 8.11024C8.69664 7.52445 9.64638 7.52445 10.2322 8.11024C10.818 8.69603 10.818 9.64581 10.2322 10.2315ZM13.7677 15.8884C13.1819 15.3026 13.1819 14.3529 13.7677 13.7671C14.3535 13.1813 15.3032 13.1813 15.889 13.7671C16.4748 14.3529 16.4748 15.3026 15.889 15.8884C15.3032 16.4742 14.3535 16.4742 13.7677 15.8884Z" fill="#EFCB3A"/></svg>
